<svg width="297" height="297" viewBox="0 0 297 297" fill="none" xmlns="http://www.w3.org/2000/svg">
<g clip-path="url(#clip0_7_15)">
<path d="M76.1551 37.5309C76.1551 16.8032 92.9682 0 113.708 0C124.078 0 132.485 8.40162 132.485 18.7655V278.198C132.485 288.563 124.078 296.965 113.708 296.965C92.9682 296.965 76.1551 280.161 76.1551 259.434V37.5309Z" fill="url(#paint0_linear_7_15)"/>
<path d="M164.485 68.7309C164.485 58.367 172.891 49.9654 183.261 49.9654C204 49.9654 220.815 66.7686 220.815 87.4963V209.469C220.815 230.197 204 247 183.261 247C172.891 247 164.485 238.598 164.485 228.235V68.7309Z" fill="url(#paint1_linear_7_15)"/>
</g>
<defs>
<linearGradient id="paint0_linear_7_15" x1="104.32" y1="0" x2="104.32" y2="296.965" gradientUnits="userSpaceOnUse">
<stop stop-color="#FFC2FE"/>
<stop offset="1" stop-color="#9E679D"/>
</linearGradient>
<linearGradient id="paint1_linear_7_15" x1="192.65" y1="49.9654" x2="192.65" y2="247" gradientUnits="userSpaceOnUse">
<stop stop-color="#FFC2FE"/>
<stop offset="1" stop-color="#9E679D"/>
</linearGradient>
<clipPath id="clip0_7_15">
<rect width="296.97" height="296.965" fill="white"/>
</clipPath>
</defs>
</svg>
