<svg width="782" height="700" viewBox="0 0 782 700" fill="none" xmlns="http://www.w3.org/2000/svg">
<path d="M239.63 147.527C227.388 147.527 217.532 157.383 217.532 169.625V235.914C217.532 248.156 227.388 258.012 239.63 258.012H260.84V290.927H240.03C227.788 290.927 217.932 300.783 217.932 313.025V379.314C217.932 391.556 227.788 401.412 240.03 401.412H260.84V433.86H240.03C227.788 433.86 217.932 443.716 217.932 455.958V522.247C217.932 534.489 227.788 544.345 240.03 544.345H591.971C604.213 544.345 614.069 534.489 614.069 522.247V455.958C614.069 443.716 604.213 433.86 591.971 433.86H571.113V401.412H591.971C604.213 401.412 614.069 391.556 614.069 379.314V313.025C614.069 300.783 604.213 290.927 591.971 290.927H571.113V258.012H591.571C603.813 258.012 613.669 248.156 613.669 235.914V169.625C613.669 157.383 603.813 147.527 591.571 147.527H239.63ZM286.1 258.012H545.855V290.927H286.1V258.012ZM286.1 401.412H545.855V433.86H286.1V401.412Z" fill="#D9463A"/>
<path d="M311.895 211.527H250.132C243.946 211.527 238.932 216.541 238.932 222.727C238.932 228.912 243.946 233.927 250.132 233.927H311.895C318.081 233.927 323.095 228.912 323.095 222.727C323.095 216.541 318.081 211.527 311.895 211.527Z" fill="white"/>
<path d="M312.258 497.86H250.494C244.309 497.86 239.294 502.874 239.294 509.06C239.294 515.245 244.309 520.26 250.494 520.26H312.258C318.443 520.26 323.458 515.245 323.458 509.06C323.458 502.874 318.443 497.86 312.258 497.86Z" fill="white"/>
<path d="M312.258 354.927H250.494C244.309 354.927 239.294 359.941 239.294 366.127C239.294 372.312 244.309 377.327 250.494 377.327H312.258C318.443 377.327 323.458 372.312 323.458 366.127C323.458 359.941 318.443 354.927 312.258 354.927Z" fill="white"/>
</svg>
